<svg width="1012" height="693" viewBox="0 0 1012 693" fill="none" xmlns="http://www.w3.org/2000/svg">
<g id="nature">
<g clip-path="url(#clip0)">
<g id="bush2">
<path id="Vector" d="M957.178 563.69C952.811 563.69 948.621 565.812 944.716 569.669C934.094 531.391 917.651 506.793 899.178 506.793C880.705 506.793 864.262 531.391 853.64 569.669C849.735 565.812 845.545 563.69 841.178 563.69C820.191 563.69 803.178 612.089 803.178 671.793H995.178C995.178 612.089 978.165 563.69 957.178 563.69Z" fill="#D0CDE1"/>
</g>
<g id="info3" style="display: none">
<path id="Vector_2" d="M454.422 383.862H529.471V377.174H454.422V383.862Z" fill="#3F3D56"/>
<path id="Vector_3" d="M454.422 408.498H529.471V401.81H454.422V408.498Z" fill="#3F3D56"/>
<path id="Vector_4" d="M454.422 430.568H529.471V423.88H454.422V430.568Z" fill="#3F3D56"/>
<path id="Vector_5" d="M332.58 444.942L369.391 407.435H411.005V406.038H368.808L368.603 406.245L331.587 443.96L332.58 444.942Z" fill="#3F3D56"/>
<path id="Vector_6" d="M430.813 390.783C435.348 390.783 439.025 387.107 439.025 382.571C439.025 378.036 435.348 374.359 430.813 374.359C426.277 374.359 422.601 378.036 422.601 382.571C422.601 387.107 426.277 390.783 430.813 390.783Z" fill="#6C63FF"/>
<path id="Vector_7" d="M430.813 415.419C435.348 415.419 439.025 411.742 439.025 407.207C439.025 402.672 435.348 398.995 430.813 398.995C426.277 398.995 422.601 402.672 422.601 407.207C422.601 411.742 426.277 415.419 430.813 415.419Z" fill="#6C63FF"/>
<path id="Vector_8" d="M430.813 437.489C435.348 437.489 439.025 433.812 439.025 429.277C439.025 424.741 435.348 421.065 430.813 421.065C426.277 421.065 422.601 424.741 422.601 429.277C422.601 433.812 426.277 437.489 430.813 437.489Z" fill="#6C63FF"/>
<path id="Vector_9" d="M426.194 380.518C426.194 378.793 426.705 377.106 427.664 375.671C428.623 374.236 429.985 373.118 431.58 372.457C433.174 371.797 434.929 371.624 436.621 371.961C438.314 372.297 439.868 373.128 441.088 374.349C442.309 375.569 443.14 377.124 443.476 378.816C443.813 380.509 443.64 382.263 442.98 383.857C442.319 385.452 441.201 386.814 439.766 387.773C438.331 388.732 436.644 389.243 434.919 389.243C432.606 389.241 430.388 388.321 428.752 386.685C427.116 385.049 426.196 382.832 426.194 380.518V380.518ZM427.22 380.518C427.22 382.041 427.672 383.529 428.518 384.795C429.363 386.061 430.566 387.048 431.973 387.631C433.379 388.214 434.927 388.366 436.421 388.069C437.914 387.772 439.286 387.039 440.363 385.962C441.439 384.885 442.173 383.514 442.47 382.02C442.767 380.527 442.614 378.979 442.032 377.572C441.449 376.165 440.462 374.963 439.196 374.117C437.93 373.271 436.441 372.82 434.919 372.82C432.878 372.822 430.921 373.634 429.478 375.077C428.034 376.52 427.222 378.477 427.22 380.518V380.518Z" fill="#3F3D56"/>
<path id="Vector_10" d="M426.194 405.154C426.194 403.428 426.705 401.742 427.664 400.307C428.623 398.872 429.986 397.753 431.58 397.093C433.174 396.433 434.929 396.26 436.621 396.597C438.314 396.933 439.868 397.764 441.088 398.984C442.309 400.205 443.14 401.759 443.476 403.452C443.813 405.144 443.64 406.899 442.98 408.493C442.319 410.087 441.201 411.45 439.766 412.409C438.331 413.368 436.644 413.879 434.919 413.879C432.606 413.877 430.388 412.957 428.752 411.321C427.116 409.685 426.196 407.467 426.194 405.154ZM427.22 405.154C427.22 406.677 427.672 408.165 428.518 409.431C429.363 410.697 430.566 411.684 431.973 412.267C433.379 412.85 434.927 413.002 436.421 412.705C437.914 412.408 439.286 411.675 440.363 410.598C441.439 409.521 442.173 408.15 442.47 406.656C442.767 405.163 442.614 403.615 442.032 402.208C441.449 400.801 440.462 399.599 439.196 398.753C437.93 397.907 436.441 397.455 434.919 397.455C432.878 397.458 430.921 398.27 429.478 399.713C428.034 401.156 427.222 403.113 427.22 405.154V405.154Z" fill="#3F3D56"/>
<path id="Vector_11" d="M426.194 427.224C426.194 425.498 426.705 423.811 427.664 422.376C428.623 420.941 429.986 419.823 431.58 419.163C433.174 418.502 434.929 418.33 436.621 418.666C438.314 419.003 439.868 419.834 441.088 421.054C442.309 422.274 443.14 423.829 443.476 425.522C443.813 427.214 443.64 428.969 442.98 430.563C442.319 432.157 441.201 433.52 439.766 434.479C438.331 435.437 436.644 435.949 434.919 435.949C432.606 435.946 430.388 435.026 428.752 433.391C427.116 431.755 426.196 429.537 426.194 427.224ZM427.22 427.224C427.22 428.746 427.672 430.235 428.518 431.501C429.363 432.767 430.566 433.754 431.973 434.337C433.379 434.919 434.927 435.072 436.421 434.775C437.914 434.478 439.286 433.744 440.363 432.668C441.439 431.591 442.173 430.219 442.47 428.726C442.767 427.232 442.614 425.684 442.032 424.278C441.449 422.871 440.462 421.668 439.196 420.823C437.93 419.977 436.441 419.525 434.919 419.525C432.878 419.527 430.921 420.339 429.478 421.783C428.034 423.226 427.222 425.183 427.22 427.224V427.224Z" fill="#3F3D56"/>
</g>
<g id="bush1">
<path id="Vector_12" d="M389.177 502.517C384.661 502.61 380.294 504.146 376.715 506.902C366.093 478.832 349.65 460.793 331.177 460.793C312.705 460.793 296.261 478.832 285.64 506.902C282.061 504.146 277.693 502.61 273.177 502.517C252.191 502.517 235.177 538.01 235.177 581.793H427.177C427.177 538.01 410.164 502.517 389.177 502.517Z" fill="#D0CDE1"/>
</g>
<g id="info2" style="display: none">
<path id="Vector_13" d="M643.739 7.70518H536.284V17.2804H643.739V7.70518Z" fill="#3F3D56"/>
<path id="Vector_14" d="M643.739 42.979H536.284V52.5542H643.739V42.979Z" fill="#3F3D56"/>
<path id="Vector_15" d="M643.739 74.5785H536.284V84.1537H643.739V74.5785Z" fill="#3F3D56"/>
<path id="Vector_16" d="M808.193 114.735L765.487 51.032H705.905V49.032H766.322L766.616 49.329L809.616 113.329L808.193 114.735Z" fill="#3F3D56"/>
<path id="Vector_17" d="M677.544 27.1902C684.037 27.1902 689.301 21.926 689.301 15.4323C689.301 8.93856 684.037 3.67435 677.544 3.67435C671.05 3.67435 665.786 8.93856 665.786 15.4323C665.786 21.926 671.05 27.1902 677.544 27.1902Z" fill="#6C63FF"/>
<path id="Vector_18" d="M677.544 62.464C684.037 62.464 689.301 57.1998 689.301 50.7061C689.301 44.2124 684.037 38.9482 677.544 38.9482C671.05 38.9482 665.786 44.2124 665.786 50.7061C665.786 57.1998 671.05 62.464 677.544 62.464Z" fill="#6C63FF"/>
<path id="Vector_19" d="M677.544 94.0635C684.037 94.0635 689.301 88.7993 689.301 82.3056C689.301 75.8118 684.037 70.5476 677.544 70.5476C671.05 70.5476 665.786 75.8118 665.786 82.3056C665.786 88.7993 671.05 94.0635 677.544 94.0635Z" fill="#6C63FF"/>
<path id="Vector_20" d="M671.665 24.9856C669.194 24.9856 666.778 24.2529 664.724 22.8802C662.669 21.5075 661.068 19.5564 660.123 17.2736C659.177 14.9908 658.93 12.479 659.412 10.0556C659.894 7.63222 661.084 5.40622 662.831 3.65907C664.578 1.91191 666.804 0.722089 669.227 0.240051C671.651 -0.241987 674.163 0.00541437 676.445 0.950966C678.728 1.89652 680.679 3.49775 682.052 5.55218C683.425 7.60662 684.157 10.022 684.157 12.4928C684.154 15.805 682.836 18.9804 680.494 21.3225C678.152 23.6645 674.977 24.9819 671.665 24.9856V24.9856ZM671.665 1.46974C669.484 1.46974 667.353 2.11624 665.54 3.32747C663.728 4.5387 662.315 6.26026 661.481 8.27447C660.646 10.2887 660.428 12.505 660.853 14.6433C661.279 16.7816 662.329 18.7457 663.87 20.2873C665.412 21.8289 667.376 22.8787 669.514 23.3041C671.652 23.7294 673.869 23.5111 675.883 22.6768C677.897 21.8425 679.619 20.4296 680.83 18.6169C682.041 16.8042 682.688 14.673 682.688 12.4928C682.684 9.57033 681.522 6.76849 679.455 4.70198C677.389 2.63547 674.587 1.47305 671.665 1.46974V1.46974Z" fill="#3F3D56"/>
<path id="Vector_21" d="M671.665 60.2594C669.194 60.2594 666.778 59.5267 664.724 58.154C662.669 56.7813 661.068 54.8302 660.123 52.5474C659.177 50.2646 658.93 47.7528 659.412 45.3294C659.894 42.906 661.084 40.68 662.831 38.9329C664.578 37.1857 666.804 35.9959 669.227 35.5139C671.651 35.0318 674.163 35.2792 676.445 36.2248C678.728 37.1703 680.679 38.7716 682.052 40.826C683.425 42.8804 684.157 45.2958 684.157 47.7666C684.154 51.0788 682.836 54.2542 680.494 56.5963C678.152 58.9384 674.977 60.2557 671.665 60.2594V60.2594ZM671.665 36.7436C669.484 36.7436 667.353 37.3901 665.54 38.6013C663.728 39.8125 662.315 41.5341 661.481 43.5483C660.646 45.5625 660.428 47.7789 660.853 49.9171C661.279 52.0554 662.329 54.0195 663.87 55.5611C665.412 57.1027 667.376 58.1526 669.514 58.5779C671.652 59.0032 673.869 58.7849 675.883 57.9506C677.897 57.1163 679.619 55.7035 680.83 53.8907C682.041 52.078 682.688 49.9468 682.688 47.7666C682.684 44.8441 681.522 42.0423 679.455 39.9758C677.389 37.9093 674.587 36.7469 671.665 36.7436V36.7436Z" fill="#3F3D56"/>
<path id="Vector_22" d="M671.665 91.8589C669.194 91.8589 666.778 91.1262 664.724 89.7535C662.669 88.3807 661.068 86.4296 660.123 84.1469C659.177 81.8641 658.93 79.3522 659.412 76.9289C659.894 74.5055 661.084 72.2795 662.831 70.5323C664.578 68.7852 666.804 67.5954 669.227 67.1133C671.651 66.6313 674.163 66.8787 676.445 67.8242C678.728 68.7698 680.679 70.371 682.052 72.4254C683.425 74.4799 684.157 76.8952 684.157 79.3661C684.154 82.6782 682.836 85.8537 680.494 88.1957C678.152 90.5378 674.977 91.8552 671.665 91.8589V91.8589ZM671.665 68.343C669.484 68.343 667.353 68.9895 665.54 70.2007C663.728 71.412 662.315 73.1335 661.481 75.1477C660.646 77.1619 660.428 79.3783 660.853 81.5166C661.279 83.6548 662.329 85.619 663.87 87.1606C665.412 88.7022 667.376 89.752 669.514 90.1773C671.652 90.6027 673.869 90.3844 675.883 89.5501C677.897 88.7158 679.619 87.3029 680.83 85.4902C682.041 83.6774 682.688 81.5462 682.688 79.3661C682.684 76.4436 681.522 73.6418 679.455 71.5752C677.389 69.5087 674.587 68.3463 671.665 68.343V68.343Z" fill="#3F3D56"/>
</g>
<g id="tree2-leaves">
<path id="Vector_23" d="M814.177 366.793C882.661 366.793 938.177 311.276 938.177 242.793C938.177 174.31 882.661 118.793 814.177 118.793C745.694 118.793 690.177 174.31 690.177 242.793C690.177 311.276 745.694 366.793 814.177 366.793Z" fill="#D0CDE1"/>
</g>
<g id="tree2">
<path id="Vector_24" d="M810.177 597.793H817.177V257.224C817.177 247.639 816.002 238.091 813.677 228.793C811.353 238.091 810.177 247.639 810.177 257.224V597.793Z" fill="#3F3D56"/>
<path id="Vector_25" d="M813.284 348.248L816.971 342.298L765.178 310.203C761.585 307.977 757.427 306.83 753.201 306.899V306.899C755.02 310.715 757.898 313.927 761.491 316.154L813.284 348.248Z" fill="#3F3D56"/>
<path id="Vector_26" d="M815.724 315.903L812.037 309.953L847.68 287.866C850.506 286.115 853.888 285.489 857.154 286.113C856.259 289.315 854.193 292.065 851.367 293.816L815.724 315.903Z" fill="#3F3D56"/>
<path id="Vector_27" d="M815.724 451.903L812.037 445.953L847.68 423.866C850.506 422.115 853.888 421.489 857.154 422.113V422.113C856.259 425.315 854.193 428.065 851.367 429.816L815.724 451.903Z" fill="#3F3D56"/>
</g>
<g id="info1" style="display: none">
<path id="Vector_28" d="M439.739 130.28H547.195V120.705L439.739 120.705V130.28Z" fill="#3F3D56"/>
<path id="Vector_29" d="M439.739 165.554H547.195V155.979H439.739V165.554Z" fill="#3F3D56"/>
<path id="Vector_30" d="M439.739 197.154H547.195V187.578H439.739V197.154Z" fill="#3F3D56"/>
<path id="Vector_31" d="M265.286 217.735L317.992 164.032H377.574V162.032H317.157L316.863 162.329L263.863 216.329L265.286 217.735Z" fill="#3F3D56"/>
<path id="Vector_32" d="M405.935 140.19C412.429 140.19 417.693 134.926 417.693 128.432C417.693 121.939 412.429 116.674 405.935 116.674C399.442 116.674 394.177 121.939 394.177 128.432C394.177 134.926 399.442 140.19 405.935 140.19Z" fill="#6C63FF"/>
<path id="Vector_33" d="M405.935 175.464C412.429 175.464 417.693 170.2 417.693 163.706C417.693 157.212 412.429 151.948 405.935 151.948C399.442 151.948 394.177 157.212 394.177 163.706C394.177 170.2 399.442 175.464 405.935 175.464Z" fill="#6C63FF"/>
<path id="Vector_34" d="M405.935 207.064C412.429 207.064 417.693 201.799 417.693 195.306C417.693 188.812 412.429 183.548 405.935 183.548C399.442 183.548 394.177 188.812 394.177 195.306C394.177 201.799 399.442 207.064 405.935 207.064Z" fill="#6C63FF"/>
<path id="Vector_35" d="M399.322 125.493C399.322 123.022 400.054 120.607 401.427 118.552C402.8 116.498 404.751 114.897 407.034 113.951C409.316 113.005 411.828 112.758 414.252 113.24C416.675 113.722 418.901 114.912 420.648 116.659C422.395 118.406 423.585 120.632 424.067 123.056C424.549 125.479 424.302 127.991 423.356 130.274C422.411 132.556 420.809 134.507 418.755 135.88C416.701 137.253 414.285 137.986 411.814 137.986C408.502 137.982 405.327 136.665 402.985 134.322C400.643 131.98 399.325 128.805 399.322 125.493V125.493ZM400.791 125.493C400.791 127.673 401.438 129.804 402.649 131.617C403.86 133.43 405.582 134.842 407.596 135.677C409.61 136.511 411.827 136.729 413.965 136.304C416.103 135.879 418.067 134.829 419.609 133.287C421.15 131.746 422.2 129.782 422.626 127.643C423.051 125.505 422.833 123.289 421.998 121.274C421.164 119.26 419.751 117.539 417.938 116.327C416.126 115.116 413.995 114.47 411.814 114.47C408.892 114.473 406.09 115.635 404.024 117.702C401.957 119.768 400.795 122.57 400.791 125.493V125.493Z" fill="#3F3D56"/>
<path id="Vector_36" d="M399.322 160.767C399.322 158.296 400.054 155.88 401.427 153.826C402.8 151.772 404.751 150.17 407.034 149.225C409.316 148.279 411.828 148.032 414.252 148.514C416.675 148.996 418.901 150.186 420.648 151.933C422.395 153.68 423.585 155.906 424.067 158.329C424.549 160.753 424.302 163.265 423.356 165.547C422.411 167.83 420.809 169.781 418.755 171.154C416.701 172.527 414.285 173.259 411.814 173.259C408.502 173.256 405.327 171.938 402.985 169.596C400.643 167.254 399.325 164.079 399.322 160.767V160.767ZM400.791 160.767C400.791 162.947 401.438 165.078 402.649 166.891C403.86 168.703 405.582 170.116 407.596 170.951C409.61 171.785 411.827 172.003 413.965 171.578C416.103 171.153 418.067 170.103 419.609 168.561C421.15 167.02 422.2 165.055 422.626 162.917C423.051 160.779 422.833 158.562 421.998 156.548C421.164 154.534 419.751 152.813 417.938 151.601C416.126 150.39 413.995 149.744 411.814 149.744C408.892 149.747 406.09 150.909 404.024 152.976C401.957 155.042 400.795 157.844 400.791 160.767V160.767Z" fill="#3F3D56"/>
<path id="Vector_37" d="M399.322 192.366C399.322 189.895 400.054 187.48 401.427 185.425C402.8 183.371 404.751 181.77 407.034 180.824C409.316 179.879 411.828 179.631 414.252 180.113C416.675 180.595 418.901 181.785 420.648 183.532C422.395 185.28 423.585 187.505 424.067 189.929C424.549 192.352 424.302 194.864 423.356 197.147C422.411 199.43 420.809 201.381 418.755 202.753C416.701 204.126 414.285 204.859 411.814 204.859C408.502 204.855 405.327 203.538 402.985 201.196C400.643 198.854 399.325 195.678 399.322 192.366V192.366ZM400.791 192.366C400.791 194.546 401.438 196.677 402.649 198.49C403.86 200.303 405.582 201.716 407.596 202.55C409.61 203.384 411.827 203.603 413.965 203.177C416.103 202.752 418.067 201.702 419.609 200.161C421.15 198.619 422.2 196.655 422.626 194.517C423.051 192.378 422.833 190.162 421.998 188.148C421.164 186.134 419.751 184.412 417.938 183.201C416.126 181.99 413.995 181.343 411.814 181.343C408.892 181.346 406.09 182.509 404.024 184.575C401.957 186.642 400.795 189.444 400.791 192.366V192.366Z" fill="#3F3D56"/>
</g>
<g id="tree1-leaves">
<path id="Vector_38" d="M129.177 370.148C200.52 370.148 258.355 312.313 258.355 240.97C258.355 169.628 200.52 111.793 129.177 111.793C57.8347 111.793 0 169.628 0 240.97C0 312.313 57.8347 370.148 129.177 370.148Z" fill="#D0CDE1"/>
</g>
<g id="tree1">
<path id="Vector_39" d="M133.344 610.793H126.052V256.004C126.052 246.019 127.277 236.072 129.698 226.386V226.386C132.12 236.072 133.344 246.019 133.344 256.004L133.344 610.793Z" fill="#3F3D56"/>
<path id="Vector_40" d="M130.108 350.829L126.267 344.63L180.223 311.195C183.966 308.876 188.297 307.681 192.7 307.753V307.753C190.805 311.728 187.807 315.075 184.064 317.394L130.108 350.829Z" fill="#3F3D56"/>
<path id="Vector_41" d="M127.566 317.133L131.407 310.934L94.2764 287.926C91.3318 286.101 87.8091 285.449 84.4065 286.099V286.099C85.3389 289.435 87.4907 292.299 90.4353 294.124L127.566 317.133Z" fill="#3F3D56"/>
<path id="Vector_42" d="M127.566 458.811L131.407 452.613L94.2764 429.604C91.3318 427.779 87.8091 427.127 84.4065 427.777V427.777C85.3389 431.114 87.4907 433.978 90.4353 435.803L127.566 458.811Z" fill="#3F3D56"/>
</g>
<g id="ground">
<path id="Vector_43" d="M1011.67 692.793H1.68744C2.59744 610.733 228.347 544.293 506.677 544.293C785.007 544.293 1010.76 610.733 1011.67 692.793Z" fill="#3F3D56"/>
<path id="Vector_44" d="M148.282 680.345C147.164 680.347 146.059 680.581 145.036 681.033C142.27 676.626 137.988 673.793 133.177 673.793C128.367 673.793 124.085 676.626 121.319 681.033C120.296 680.581 119.191 680.347 118.073 680.345C112.608 680.345 108.177 685.918 108.177 692.793H158.177C158.177 685.918 153.747 680.345 148.282 680.345Z" fill="#D0CDE1"/>
<path id="Vector_45" d="M458.282 671.828C457.103 671.853 455.964 672.26 455.036 672.987C452.27 665.564 447.988 660.793 443.177 660.793C438.367 660.793 434.085 665.564 431.319 672.987C430.391 672.26 429.252 671.853 428.073 671.828C422.608 671.828 418.177 681.214 418.177 692.793H468.177C468.177 681.214 463.747 671.828 458.282 671.828Z" fill="#D0CDE1"/>
<path id="Vector_46" d="M889.282 671.828C888.103 671.853 886.964 672.26 886.036 672.987C883.27 665.564 878.988 660.793 874.177 660.793C869.367 660.793 865.085 665.564 862.319 672.987C861.391 672.26 860.252 671.853 859.073 671.828C853.608 671.828 849.177 681.214 849.177 692.793H899.177C899.177 681.214 894.747 671.828 889.282 671.828Z" fill="#6C63FF"/>
</g>
</g>
</g>
<defs>
<clipPath id="clip0">
<rect width="1011.67" height="692.793" fill="white"/>
</clipPath>
</defs>
</svg>
